ffmpeg version git-2026-04-19-de18feb Copyright (c) 2000-2026 the FFmpeg developers
  built with gcc 9 (Ubuntu 9.4.0-1ubuntu1~20.04.2)
  configuration: --enable-shared --enable-gpl --enable-libx264
  libavutil      60. 30.100 / 60. 30.100
  libavcodec     62. 30.100 / 62. 30.100
  libavformat    62. 13.102 / 62. 13.102
  libavdevice    62.  4.100 / 62.  4.100
  libavfilter    11. 15.101 / 11. 15.101
  libswscale      9.  7.100 /  9.  7.100
  libswresample   6.  4.100 /  6.  4.100
[in#0/x11grab @ 0x555a6d61bc40] Stream #0: not enough frames to estimate rate; consider increasing probesize
Input #0, x11grab, from ':0.0+0,0':
  Duration: N/A, start: 1777447052.891736, bitrate: 3678192 kb/s
  Stream #0:0: Video: rawvideo (BGR[0] / 0x524742), bgr0, 2870x1602, 3678192 kb/s, 25 fps, 1000k tbr, 1000k tbn, start 1777447052.891736
Stream mapping:
  Stream #0:0 -> #0:0 (rawvideo (native) -> h264 (libx264))
[libx264 @ 0x555a6d629f00] using cpu capabilities: MMX2 SSE2Fast SSSE3 SSE4.2 AVX FMA3 BMI2 AVX2
[libx264 @ 0x555a6d629f00] profile High, level 5.0
[libx264 @ 0x555a6d629f00] 264 - core 155 r2917 0a84d98 - H.264/MPEG-4 AVC codec - Copyleft 2003-2018 - http://www.videolan.org/x264.html - options: cabac=1 ref=1 deblock=1:0:0 analyse=0x3:0x113 me=hex subme=2 psy=1 psy_rd=1.00:0.00 mixed_ref=0 me_range=16 chroma_me=1 trellis=0 8x8dct=1 cqm=0 deadzone=21,11 fast_pskip=1 chroma_qp_offset=0 threads=6 lookahead_threads=2 sliced_threads=0 nr=0 decimate=1 interlaced=0 bluray_compat=0 constrained_intra=0 bframes=3 b_pyramid=2 b_adapt=1 b_bias=0 direct=1 weightb=1 open_gop=0 weightp=1 keyint=250 keyint_min=25 scenecut=40 intra_refresh=0 rc_lookahead=10 rc=crf mbtree=1 crf=23.0 qcomp=0.60 qpmin=0 qpmax=69 qpstep=4 ip_ratio=1.40 aq=1:1.00
Output #0, matroska, to '/home/lmy/catkin_ws/recordings_tmp/exp_turncmp5_point_v3/screen.mkv':
  Metadata:
    encoder         : Lavf62.13.102
  Stream #0:0: Video: h264 (H264 / 0x34363248), yuv420p(tv, progressive), 2870x1602, q=2-31, 25 fps, 1k tbn
    Metadata:
      encoder         : Lavc62.30.100 libx264
    Side data:
      CPB properties: bitrate max/min/avg: 0/0/0 buffer size: 0 vbv_delay: N/A
frame=    0 fps=0.0 q=0.0 size=       0KiB time=N/A bitrate=N/A speed=N/A elapsed=0:00:00.50    frame=    6 fps=6.0 q=28.0 size=       1KiB time=00:00:00.20 bitrate=  23.8kbits/s speed= 0.2x elapsed=0:00:01.00    frame=   18 fps= 12 q=28.0 size=       1KiB time=00:00:00.68 bitrate=   7.0kbits/s speed=0.453x elapsed=0:00:01.50    frame=   31 fps= 15 q=28.0 size=       1KiB time=00:00:01.20 bitrate=   4.0kbits/s speed= 0.6x elapsed=0:00:02.00    frame=   43 fps= 17 q=28.0 size=       1KiB time=00:00:01.68 bitrate=   2.8kbits/s speed=0.672x elapsed=0:00:02.50    frame=   56 fps= 19 q=28.0 size=       1KiB time=00:00:02.20 bitrate=   2.2kbits/s speed=0.733x elapsed=0:00:03.00    frame=   68 fps= 19 q=28.0 size=       1KiB time=00:00:02.64 bitrate=   1.8kbits/s speed=0.754x elapsed=0:00:03.50    frame=   81 fps= 20 q=28.0 size=       1KiB time=00:00:03.20 bitrate=   1.5kbits/s speed= 0.8x elapsed=0:00:04.00    frame=   93 fps= 21 q=28.0 size=       1KiB time=00:00:03.68 bitrate=   1.3kbits/s speed=0.817x elapsed=0:00:04.50    frame=  106 fps= 21 q=28.0 size=       1KiB time=00:00:04.20 bitrate=   1.1kbits/s speed=0.84x elapsed=0:00:05.00    frame=  118 fps= 21 q=28.0 size=       1KiB time=00:00:04.68 bitrate=   1.0kbits/s speed=0.85x elapsed=0:00:05.50    frame=  131 fps= 22 q=28.0 size=     157KiB time=00:00:05.20 bitrate= 247.8kbits/s speed=0.866x elapsed=0:00:06.00    frame=  143 fps= 22 q=28.0 size=     157KiB time=00:00:05.68 bitrate= 226.9kbits/s speed=0.873x elapsed=0:00:06.50    frame=  156 fps= 22 q=28.0 size=     157KiB time=00:00:06.20 bitrate= 207.9kbits/s speed=0.885x elapsed=0:00:07.00    frame=  168 fps= 22 q=28.0 size=     157KiB time=00:00:06.68 bitrate= 192.9kbits/s speed=0.89x elapsed=0:00:07.50    frame=  181 fps= 23 q=28.0 size=     157KiB time=00:00:07.20 bitrate= 179.0kbits/s speed=0.899x elapsed=0:00:08.00    frame=  193 fps= 23 q=28.0 size=     157KiB time=00:00:07.68 bitrate= 167.8kbits/s speed=0.903x elapsed=0:00:08.50    frame=  206 fps= 23 q=28.0 size=     157KiB time=00:00:08.20 bitrate= 157.2kbits/s speed=0.91x elapsed=0:00:09.00    frame=  218 fps= 23 q=28.0 size=     157KiB time=00:00:08.68 bitrate= 148.5kbits/s speed=0.913x elapsed=0:00:09.50    frame=  231 fps= 23 q=28.0 size=     157KiB time=00:00:09.20 bitrate= 140.1kbits/s speed=0.919x elapsed=0:00:10.00    frame=  243 fps= 23 q=28.0 size=     157KiB time=00:00:09.68 bitrate= 133.1kbits/s speed=0.921x elapsed=0:00:10.50    frame=  256 fps= 23 q=28.0 size=     256KiB time=00:00:10.20 bitrate= 205.6kbits/s speed=0.927x elapsed=0:00:11.00    frame=  268 fps= 23 q=28.0 size=     256KiB time=00:00:10.68 bitrate= 196.4kbits/s speed=0.928x elapsed=0:00:11.50    frame=  281 fps= 23 q=28.0 size=     256KiB time=00:00:11.20 bitrate= 187.2kbits/s speed=0.933x elapsed=0:00:12.00    frame=  293 fps= 23 q=28.0 size=     256KiB time=00:00:11.68 bitrate= 179.6kbits/s speed=0.934x elapsed=0:00:12.50    frame=  306 fps= 24 q=28.0 size=     256KiB time=00:00:12.20 bitrate= 171.9kbits/s speed=0.938x elapsed=0:00:13.00    frame=  318 fps= 24 q=28.0 size=     256KiB time=00:00:12.68 bitrate= 165.4kbits/s speed=0.939x elapsed=0:00:13.50    frame=  331 fps= 24 q=28.0 size=     256KiB time=00:00:13.20 bitrate= 158.9kbits/s speed=0.942x elapsed=0:00:14.00    frame=  343 fps= 24 q=28.0 size=     256KiB time=00:00:13.68 bitrate= 153.3kbits/s speed=0.943x elapsed=0:00:14.51    frame=  356 fps= 24 q=28.0 size=     256KiB time=00:00:14.20 bitrate= 147.7kbits/s speed=0.946x elapsed=0:00:15.01    frame=  368 fps= 24 q=28.0 size=     256KiB time=00:00:14.64 bitrate= 143.2kbits/s speed=0.944x elapsed=0:00:15.51    frame=  381 fps= 24 q=28.0 size=     512KiB time=00:00:15.16 bitrate= 276.7kbits/s speed=0.947x elapsed=0:00:16.01    frame=  394 fps= 24 q=28.0 size=     512KiB time=00:00:15.72 bitrate= 266.8kbits/s speed=0.952x elapsed=0:00:16.51    frame=  406 fps= 24 q=28.0 size=     512KiB time=00:00:16.20 bitrate= 258.9kbits/s speed=0.952x elapsed=0:00:17.01    frame=  419 fps= 24 q=28.0 size=     512KiB time=00:00:16.72 bitrate= 250.9kbits/s speed=0.955x elapsed=0:00:17.51    frame=  431 fps= 24 q=28.0 size=     512KiB time=00:00:17.20 bitrate= 243.9kbits/s speed=0.955x elapsed=0:00:18.01    frame=  444 fps= 24 q=28.0 size=     512KiB time=00:00:17.72 bitrate= 236.7kbits/s speed=0.957x elapsed=0:00:18.51    frame=  456 fps= 24 q=28.0 size=     512KiB time=00:00:18.20 bitrate= 230.5kbits/s speed=0.957x elapsed=0:00:19.01    frame=  469 fps= 24 q=28.0 size=     512KiB time=00:00:18.72 bitrate= 224.1kbits/s speed=0.959x elapsed=0:00:19.51    frame=  481 fps= 24 q=28.0 size=     512KiB time=00:00:19.20 bitrate= 218.5kbits/s speed=0.959x elapsed=0:00:20.01    frame=  493 fps= 24 q=28.0 size=     512KiB time=00:00:19.64 bitrate= 213.6kbits/s speed=0.957x elapsed=0:00:20.51    frame=  506 fps= 24 q=28.0 size=     512KiB time=00:00:20.20 bitrate= 207.6kbits/s speed=0.961x elapsed=0:00:21.01    frame=  519 fps= 24 q=28.0 size=     512KiB time=00:00:20.72 bitrate= 202.4kbits/s speed=0.963x elapsed=0:00:21.51    frame=  531 fps= 24 q=28.0 size=     512KiB time=00:00:21.20 bitrate= 197.8kbits/s speed=0.963x elapsed=0:00:22.01    frame=  544 fps= 24 q=28.0 size=     512KiB time=00:00:21.72 bitrate= 193.1kbits/s speed=0.964x elapsed=0:00:22.51    frame=  556 fps= 24 q=28.0 size=     512KiB time=00:00:22.20 bitrate= 188.9kbits/s speed=0.964x elapsed=0:00:23.02    frame=  569 fps= 24 q=28.0 size=     512KiB time=00:00:22.68 bitrate= 184.9kbits/s speed=0.964x elapsed=0:00:23.52    frame=  581 fps= 24 q=28.0 size=     512KiB time=00:00:23.20 bitrate= 180.8kbits/s speed=0.966x elapsed=0:00:24.02    frame=  593 fps= 24 q=28.0 size=     512KiB time=00:00:23.68 bitrate= 177.1kbits/s speed=0.966x elapsed=0:00:24.52    frame=  606 fps= 24 q=28.0 size=     512KiB time=00:00:24.20 bitrate= 173.3kbits/s speed=0.967x elapsed=0:00:25.02    frame=  619 fps= 24 q=28.0 size=     512KiB time=00:00:24.72 bitrate= 169.7kbits/s speed=0.968x elapsed=0:00:25.52    frame=  631 fps= 24 q=28.0 size=     768KiB time=00:00:25.20 bitrate= 249.7kbits/s speed=0.968x elapsed=0:00:26.02    frame=  644 fps= 24 q=28.0 size=     768KiB time=00:00:25.72 bitrate= 244.6kbits/s speed=0.97x elapsed=0:00:26.52    frame=  656 fps= 24 q=28.0 size=     768KiB time=00:00:26.20 bitrate= 240.1kbits/s speed=0.969x elapsed=0:00:27.02    frame=  669 fps= 24 q=28.0 size=     768KiB time=00:00:26.72 bitrate= 235.5kbits/s speed=0.971x elapsed=0:00:27.52    frame=  681 fps= 24 q=28.0 size=     768KiB time=00:00:27.20 bitrate= 231.3kbits/s speed=0.97x elapsed=0:00:28.02    frame=  694 fps= 24 q=28.0 size=     768KiB time=00:00:27.72 bitrate= 227.0kbits/s speed=0.972x elapsed=0:00:28.52    frame=  706 fps= 24 q=28.0 size=     768KiB time=00:00:28.20 bitrate= 223.1kbits/s speed=0.971x elapsed=0:00:29.02    frame=  719 fps= 24 q=28.0 size=     768KiB time=00:00:28.72 bitrate= 219.1kbits/s speed=0.973x elapsed=0:00:29.52    frame=  731 fps= 24 q=28.0 size=     768KiB time=00:00:29.20 bitrate= 215.5kbits/s speed=0.972x elapsed=0:00:30.03    frame=  744 fps= 24 q=28.0 size=     768KiB time=00:00:29.72 bitrate= 211.7kbits/s speed=0.973x elapsed=0:00:30.53    frame=  756 fps= 24 q=28.0 size=     768KiB time=00:00:30.20 bitrate= 208.3kbits/s speed=0.973x elapsed=0:00:31.03    frame=  769 fps= 24 q=28.0 size=     768KiB time=00:00:30.72 bitrate= 204.8kbits/s speed=0.974x elapsed=0:00:31.53    frame=  781 fps= 24 q=28.0 size=     768KiB time=00:00:31.16 bitrate= 201.9kbits/s speed=0.973x elapsed=0:00:32.03    frame=  794 fps= 24 q=28.0 size=     768KiB time=00:00:31.72 bitrate= 198.3kbits/s speed=0.975x elapsed=0:00:32.53    frame=  806 fps= 24 q=28.0 size=     768KiB time=00:00:32.20 bitrate= 195.4kbits/s speed=0.975x elapsed=0:00:33.03    frame=  819 fps= 24 q=28.0 size=     768KiB time=00:00:32.72 bitrate= 192.3kbits/s speed=0.976x elapsed=0:00:33.53    frame=  832 fps= 24 q=28.0 size=     768KiB time=00:00:33.24 bitrate= 189.3kbits/s speed=0.977x elapsed=0:00:34.03    frame=  844 fps= 24 q=28.0 size=     768KiB time=00:00:33.72 bitrate= 186.6kbits/s speed=0.976x elapsed=0:00:34.53    frame=  857 fps= 24 q=28.0 size=     768KiB time=00:00:34.24 bitrate= 183.7kbits/s speed=0.977x elapsed=0:00:35.03    frame=  869 fps= 24 q=28.0 size=     768KiB time=00:00:34.72 bitrate= 181.2kbits/s speed=0.977x elapsed=0:00:35.53    frame=  882 fps= 24 q=28.0 size=    1024KiB time=00:00:35.24 bitrate= 238.0kbits/s speed=0.978x elapsed=0:00:36.03    frame=  894 fps= 24 q=28.0 size=    1024KiB time=00:00:35.72 bitrate= 234.8kbits/s speed=0.978x elapsed=0:00:36.53    frame=  907 fps= 24 q=28.0 size=    1024KiB time=00:00:36.24 bitrate= 231.5kbits/s speed=0.979x elapsed=0:00:37.03    frame=  919 fps= 24 q=28.0 size=    1024KiB time=00:00:36.72 bitrate= 228.4kbits/s speed=0.978x elapsed=0:00:37.53    frame=  932 fps= 25 q=28.0 size=    1024KiB time=00:00:37.20 bitrate= 225.5kbits/s speed=0.978x elapsed=0:00:38.03    frame=  944 fps= 24 q=28.0 size=    1024KiB time=00:00:37.68 bitrate= 222.6kbits/s speed=0.978x elapsed=0:00:38.53    frame=  957 fps= 25 q=28.0 size=    1024KiB time=00:00:38.24 bitrate= 219.4kbits/s speed=0.98x elapsed=0:00:39.03    frame=  969 fps= 25 q=28.0 size=    1024KiB time=00:00:38.72 bitrate= 216.6kbits/s speed=0.979x elapsed=0:00:39.53    frame=  982 fps= 25 q=28.0 size=    1024KiB time=00:00:39.24 bitrate= 213.8kbits/s speed=0.98x elapsed=0:00:40.03    frame=  994 fps= 25 q=28.0 size=    1024KiB time=00:00:39.72 bitrate= 211.2kbits/s speed=0.98x elapsed=0:00:40.53    frame= 1007 fps= 25 q=28.0 size=    1280KiB time=00:00:40.24 bitrate= 260.6kbits/s speed=0.981x elapsed=0:00:41.03    frame= 1019 fps= 25 q=28.0 size=    1280KiB time=00:00:40.72 bitrate= 257.5kbits/s speed=0.98x elapsed=0:00:41.53    frame= 1032 fps= 25 q=28.0 size=    1280KiB time=00:00:41.24 bitrate= 254.3kbits/s speed=0.981x elapsed=0:00:42.03    frame= 1044 fps= 25 q=28.0 size=    1280KiB time=00:00:41.72 bitrate= 251.3kbits/s speed=0.981x elapsed=0:00:42.53    [out#0/matroska @ 0x555a6d628500] video:1508KiB audio:0KiB subtitle:0KiB other streams:0KiB global headers:0KiB muxing overhead: 0.543808%
frame= 1077 fps= 25 q=-1.0 Lsize=    1516KiB time=00:00:43.04 bitrate= 288.5kbits/s speed=0.997x elapsed=0:00:43.16    
[libx264 @ 0x555a6d629f00] frame I:5     Avg QP:11.43  size:110874
[libx264 @ 0x555a6d629f00] frame P:271   Avg QP:16.55  size:  2292
[libx264 @ 0x555a6d629f00] frame B:801   Avg QP:21.28  size:   459
[libx264 @ 0x555a6d629f00] consecutive B-frames:  0.8%  0.0%  0.0% 99.2%
[libx264 @ 0x555a6d629f00] mb I  I16..4: 89.4%  2.3%  8.3%
[libx264 @ 0x555a6d629f00] mb P  I16..4:  0.4%  0.1%  0.0%  P16..4:  0.3%  0.2%  0.1%  0.0%  0.0%    skip:99.0%
[libx264 @ 0x555a6d629f00] mb B  I16..4:  0.0%  0.0%  0.0%  B16..8:  0.2%  0.1%  0.0%  direct: 0.0%  skip:99.6%  L0:45.4% L1:46.8% BI: 7.8%
[libx264 @ 0x555a6d629f00] 8x8 transform intra:4.5% inter:2.2%
[libx264 @ 0x555a6d629f00] coded y,uvDC,uvAC intra: 12.7% 19.6% 15.5% inter: 0.1% 0.1% 0.0%
[libx264 @ 0x555a6d629f00] i16 v,h,dc,p: 71% 27%  2%  0%
[libx264 @ 0x555a6d629f00] i8 v,h,dc,ddl,ddr,vr,hd,vl,hu: 12% 15% 64%  1%  3%  3%  1%  0%  1%
[libx264 @ 0x555a6d629f00] i4 v,h,dc,ddl,ddr,vr,hd,vl,hu: 26% 25% 27%  3%  3%  4%  3%  7%  2%
[libx264 @ 0x555a6d629f00] i8c dc,h,v,p: 62% 28%  9%  1%
[libx264 @ 0x555a6d629f00] Weighted P-Frames: Y:0.0% UV:0.0%
[libx264 @ 0x555a6d629f00] kb/s:286.28
Exiting normally, received signal 2.
